<?xml version="1.0" encoding="UTF-8"?>
<svg version="1.1" xmlns="http://www.w3.org/2000/svg" width="397" height="122">
<path d="M0 0 C131.01 0 262.02 0 397 0 C397 40.26 397 80.52 397 122 C265.99 122 134.98 122 0 122 C0 81.74 0 41.48 0 0 Z " fill="#F8F8F8" transform="translate(0,0)"/>
<path d="M0 0 C58.74 0 117.48 0 178 0 C178 27.72 178 55.44 178 84 C119.26 84 60.52 84 0 84 C0 56.28 0 28.56 0 0 Z " fill="#000000" transform="translate(22,21)"/>
<path d="M0 0 C131.01 0 262.02 0 397 0 C397 40.26 397 80.52 397 122 C265.99 122 134.98 122 0 122 C0 81.74 0 41.48 0 0 Z M11 11 C11 45.32 11 79.64 11 115 C135.41 115 259.82 115 388 115 C388 80.68 388 46.36 388 11 C263.59 11 139.18 11 11 11 Z " fill="#FEFEFE" transform="translate(0,0)"/>
<path d="M0 0 C124.41 0 248.82 0 377 0 C377 34.32 377 68.64 377 104 C252.59 104 128.18 104 0 104 C0 69.68 0 35.36 0 0 Z M3 3 C3 35.34 3 67.68 3 101 C125.43 101 247.86 101 374 101 C374 68.66 374 36.32 374 3 C251.57 3 129.14 3 3 3 Z " fill="#0E0E0E" transform="translate(11,11)"/>
<path d="M0 0 C16.54670645 -0.58572412 16.54670645 -0.58572412 22 4 C25.19863734 7.61136473 25.52652611 11.05257975 25.34765625 15.71875 C24.74812327 19.65276419 23.4245717 21.80977407 21 25 C16.37892216 27.92894787 12.46164474 28.38757991 7.125 28.1875 C4.77375 28.125625 2.4225 28.06375 0 28 C0 18.76 0 9.52 0 0 Z " fill="#0E060B" transform="translate(77,49)"/>
<path d="M0 0 C2.51625 -0.061875 5.0325 -0.12375 7.625 -0.1875 C8.79603271 -0.22846802 8.79603271 -0.22846802 9.99072266 -0.27026367 C14.71841279 -0.32607418 17.91835974 0.37083533 22 3 C24.48386059 6.72579089 24.3804212 8.58711402 24 13 C23.02308143 14.68029994 22.02611949 16.34928604 21 18 C21.10417827 20.00339546 21.10417827 20.00339546 22 22 C22.350625 23.0725 22.70125 24.145 23.0625 25.25 C23.5265625 26.61125 23.5265625 26.61125 24 28 C21.03 28 18.06 28 15 28 C12 22.25 12 22.25 12 20 C10.68 20 9.36 20 8 20 C8 22.64 8 25.28 8 28 C5.36 28 2.72 28 0 28 C0 18.76 0 9.52 0 0 Z " fill="#070409" transform="translate(248,49)"/>
<path d="M0 0 C7 0 7 0 9.65234375 2.625 C10.437648 3.73366482 11.19905681 4.85958687 11.9375 6 C12.33517578 6.57234375 12.73285156 7.1446875 13.14257812 7.734375 C14.11612158 9.1419077 15.06102212 10.56917657 16 12 C16.33 8.04 16.66 4.08 17 0 C19.64 0 22.28 0 25 0 C25 9.24 25 18.48 25 28 C18 28 18 28 15.34765625 25.375 C14.562352 24.26633518 13.80094319 23.14041313 13.0625 22 C12.66482422 21.42765625 12.26714844 20.8553125 11.85742188 20.265625 C10.88387842 18.8580923 9.93897788 17.43082343 9 16 C8.67 19.96 8.34 23.92 8 28 C5.36 28 2.72 28 0 28 C0 18.76 0 9.52 0 0 Z " fill="#04040B" transform="translate(308,49)"/>
<path d="M0 0 C2.64 0 5.28 0 8 0 C8 3.3 8 6.6 8 10 C10.3912295 10.2113453 10.3912295 10.2113453 13 9 C14.69300427 6.13325156 15.86963623 3.12586629 17 0 C19.64 0 22.28 0 25 0 C24.54464901 1.56337173 24.08557224 3.12565849 23.625 4.6875 C23.24214844 5.99267578 23.24214844 5.99267578 22.8515625 7.32421875 C22 10 22 10 20.71875 12.4765625 C19.70047978 15.08018917 19.70047978 15.08018917 21.1171875 17.82421875 C21.69726562 18.76910156 22.27734375 19.71398437 22.875 20.6875 C26 25.86547085 26 25.86547085 26 28 C23.03 28 20.06 28 17 28 C16.16151196 26.54462432 15.32936066 25.08559627 14.5 23.625 C14.0359375 22.81289062 13.571875 22.00078125 13.09375 21.1640625 C12 19 12 19 12 17 C10.68 17 9.36 17 8 17 C8 20.63 8 24.26 8 28 C5.36 28 2.72 28 0 28 C0 18.76 0 9.52 0 0 Z " fill="#090306" transform="translate(339,49)"/>
<path d="M0 0 C2.97 0 5.94 0 9 0 C10.42842911 3.66452852 11.85247676 7.33072569 13.27246094 10.99853516 C13.99441847 12.86060415 14.71985238 14.72132407 15.4453125 16.58203125 C15.89648438 17.74863281 16.34765625 18.91523437 16.8125 20.1171875 C17.23144531 21.19597168 17.65039062 22.27475586 18.08203125 23.38623047 C19 26 19 26 19 28 C16.03 28 13.06 28 10 28 C9.67 27.01 9.34 26.02 9 25 C5.7 24.67 2.4 24.34 -1 24 C-1.33 25.32 -1.66 26.64 -2 28 C-4.97 28 -7.94 28 -11 28 C-7.52148365 18.58051242 -3.95207137 9.23315789 0 0 Z " fill="#0A070A" transform="translate(285,49)"/>
<path d="M0 0 C15.26785714 -0.66964286 15.26785714 -0.66964286 18.9375 2 C21.80380719 6.16917409 21.79190864 8.01097559 21 13 C19.125 15.5 19.125 15.5 17 17 C16.34 17 15.68 17 15 17 C16.98 20.63 18.96 24.26 21 28 C19.35 28 17.7 28 16 28 C14.41015625 26.06640625 14.41015625 26.06640625 13.0625 23.5625 C10.7971939 19.64153757 10.7971939 19.64153757 6.625 17.9375 C5.325625 17.9684375 5.325625 17.9684375 4 18 C4 21.3 4 24.6 4 28 C2.68 28 1.36 28 0 28 C0 18.76 0 9.52 0 0 Z " fill="#EFF0E9" transform="translate(111,49)"/>
<path d="M0 0 C5.94 0 11.88 0 18 0 C18 2.31 18 4.62 18 7 C14.7 7 11.4 7 8 7 C8 8.98 8 10.96 8 13 C10.97 13 13.94 13 17 13 C17 15.31 17 17.62 17 20 C14.03 20 11.06 20 8 20 C8 22.64 8 25.28 8 28 C5.36 28 2.72 28 0 28 C0 18.76 0 9.52 0 0 Z " fill="#030003" transform="translate(225,49)"/>
<path d="M0 0 C16.54670645 -0.58572412 16.54670645 -0.58572412 22 4 C25.19863734 7.61136473 25.52652611 11.05257975 25.34765625 15.71875 C24.74812327 19.65276419 23.4245717 21.80977407 21 25 C16.37892216 27.92894787 12.46164474 28.38757991 7.125 28.1875 C4.77375 28.125625 2.4225 28.06375 0 28 C0 18.76 0 9.52 0 0 Z M4 3 C4 10.26 4 17.52 4 25 C11.81417642 25.2357867 11.81417642 25.2357867 18 22 C20.42937292 19.0847525 20.96492911 17.28056714 21.4375 13.5 C20.92017827 9.36142613 20.00806518 7.84546706 17 5 C12.41130883 2.32326348 9.84597671 3 4 3 Z " fill="#E9F1EF" transform="translate(77,49)"/>
<path d="M0 0 C7.08932806 -0.36047431 7.08932806 -0.36047431 11 1.1875 C13 3 13 3 13.5 5.5 C12.91219433 8.43902836 12.36528369 9.21186614 10 11 C7.51953125 11.29296875 7.51953125 11.29296875 4.8125 11.1875 C3.224375 11.125625 1.63625 11.06375 0 11 C0 7.37 0 3.74 0 0 Z " fill="#060A10" transform="translate(115,52)"/>
<path d="M0 0 C2.31 0 4.62 0 7 0 C7.33 1.65 7.66 3.3 8 5 C4.77208445 7.1519437 3.71599191 7.20086443 0 7 C0 4.69 0 2.38 0 0 Z " fill="#EBEFE5" transform="translate(256,56)"/>
<path d="M0 0 C2.5654594 2.5654594 2.54046087 4.47686668 3 8 C1.02 8 -0.96 8 -3 8 C-2.01 5.36 -1.02 2.72 0 0 Z " fill="#DEE3D8" transform="translate(289,59)"/>
<path d="M0 0 C1.65 0.33 3.3 0.66 5 1 C4.67 2.32 4.34 3.64 4 5 C2.35 4.67 0.7 4.34 -1 4 C-0.67 2.68 -0.34 1.36 0 0 Z " fill="#E6EDEB" transform="translate(141,73)"/>
</svg>
